<?xml version="1.0" encoding="iso-8859-1"?>
<!-- Generator: Adobe Illustrator 19.0.0, SVG Export Plug-In . SVG Version: 6.00 Build 0)  -->
<svg version="1.1" id="Capa_1" xmlns="http://www.w3.org/2000/svg" xmlns:xlink="http://www.w3.org/1999/xlink" x="0px" y="0px"
	 viewBox="0 0 487.622 487.622" style="enable-background:new 0 0 487.622 487.622;" xml:space="preserve">
<g>
	<g>
		<circle style="fill:#EED26A;" cx="243.811" cy="243.811" r="243.811"/>
		<circle style="fill:#C4E15E;" cx="243.811" cy="243.811" r="243.811"/>
		<path style="opacity:0.37;fill:#B5D24F;enable-background:new    ;" d="M471.725,330.54l-54.32-63.743l-135.594-37.986
			l-128.947,38.941L328.235,472.6C394.199,448.25,446.729,396.186,471.725,330.54z"/>
		<path style="fill:#FFFFFF;" d="M108.038,119.431c4.45,19.311,12.688,36.823,23.533,51.296
			c10.826,14.501,24.199,25.99,38.53,34.005c14.338,8.034,29.607,12.579,44.246,13.801c7.324,0.62,14.492,0.423,21.368-0.493
			c2.051-0.273,4.072-0.618,6.069-1.016v-51.623l87.81,50.697l87.811,50.698l-87.811,50.697l-87.81,50.697v-50.684
			c-1.902-0.462-3.801-0.942-5.682-1.459c-6.317-1.734-12.508-3.772-18.534-6.099c-12.055-4.652-23.446-10.461-33.948-17.227
			c-21.025-13.527-38.432-30.875-51.374-50.137c-12.966-19.265-21.482-40.452-25.407-61.616
			C102.882,159.794,103.563,138.709,108.038,119.431z"/>
	</g>
</g>
<g>
</g>
<g>
</g>
<g>
</g>
<g>
</g>
<g>
</g>
<g>
</g>
<g>
</g>
<g>
</g>
<g>
</g>
<g>
</g>
<g>
</g>
<g>
</g>
<g>
</g>
<g>
</g>
<g>
</g>
</svg>
